<?xml version="1.0" encoding="UTF-8" standalone="no"?>
<!DOCTYPE svg PUBLIC "-//W3C//DTD SVG 1.1//EN"
 "http://www.w3.org/Graphics/SVG/1.1/DTD/svg11.dtd">
<!-- Generated by graphviz version 2.40.1 (20161225.0304)
 -->
<!-- Title: G Pages: 1 -->
<svg width="725pt" height="310pt"
 viewBox="0.00 0.00 725.20 310.20" xmlns="http://www.w3.org/2000/svg" xmlns:xlink="http://www.w3.org/1999/xlink">
<g id="graph0" class="graph" transform="scale(1 1) rotate(0) translate(21.6 288.6)">
<title>G</title>
<polygon fill="#111111" stroke="transparent" points="-21.6,21.6 -21.6,-288.6 703.6,-288.6 703.6,21.6 -21.6,21.6"/>
<!-- index.js -->
<g id="node1" class="node">
<title>index.js</title>
<path fill="none" stroke="#c6c5fe" d="M58.3333,-185C58.3333,-185 7.6667,-185 7.6667,-185 3.8333,-185 0,-181.1667 0,-177.3333 0,-177.3333 0,-169.6667 0,-169.6667 0,-165.8333 3.8333,-162 7.6667,-162 7.6667,-162 58.3333,-162 58.3333,-162 62.1667,-162 66,-165.8333 66,-169.6667 66,-169.6667 66,-177.3333 66,-177.3333 66,-181.1667 62.1667,-185 58.3333,-185"/>
<text text-anchor="middle" x="33" y="-169.8" font-family="Arial" font-size="14.00" fill="#c6c5fe">index.js</text>
</g>
<!-- store/index.js -->
<g id="node2" class="node">
<title>store/index.js</title>
<path fill="none" stroke="#c6c5fe" d="M196.3333,-185C196.3333,-185 109.6667,-185 109.6667,-185 105.8333,-185 102,-181.1667 102,-177.3333 102,-177.3333 102,-169.6667 102,-169.6667 102,-165.8333 105.8333,-162 109.6667,-162 109.6667,-162 196.3333,-162 196.3333,-162 200.1667,-162 204,-165.8333 204,-169.6667 204,-169.6667 204,-177.3333 204,-177.3333 204,-181.1667 200.1667,-185 196.3333,-185"/>
<text text-anchor="middle" x="153" y="-169.8" font-family="Arial" font-size="14.00" fill="#c6c5fe">store/index.js</text>
</g>
<!-- index.js&#45;&gt;store/index.js -->
<g id="edge1" class="edge">
<title>index.js&#45;&gt;store/index.js</title>
<path fill="none" stroke="#757575" d="M66.1082,-173.5C73.9864,-173.5 82.6446,-173.5 91.3491,-173.5"/>
<polygon fill="#757575" stroke="#757575" points="91.5448,-177.0001 101.5448,-173.5 91.5448,-170.0001 91.5448,-177.0001"/>
</g>
<!-- ui/Canvas.js -->
<g id="node3" class="node">
<title>ui/Canvas.js</title>
<path fill="none" stroke="#c6c5fe" d="M193.3333,-64C193.3333,-64 112.6667,-64 112.6667,-64 108.8333,-64 105,-60.1667 105,-56.3333 105,-56.3333 105,-48.6667 105,-48.6667 105,-44.8333 108.8333,-41 112.6667,-41 112.6667,-41 193.3333,-41 193.3333,-41 197.1667,-41 201,-44.8333 201,-48.6667 201,-48.6667 201,-56.3333 201,-56.3333 201,-60.1667 197.1667,-64 193.3333,-64"/>
<text text-anchor="middle" x="153" y="-48.8" font-family="Arial" font-size="14.00" fill="#c6c5fe">ui/Canvas.js</text>
</g>
<!-- index.js&#45;&gt;ui/Canvas.js -->
<g id="edge2" class="edge">
<title>index.js&#45;&gt;ui/Canvas.js</title>
<path fill="none" stroke="#757575" d="M44.5061,-161.898C65.2395,-140.9918 109.0481,-96.8182 134.1939,-71.4628"/>
<polygon fill="#757575" stroke="#757575" points="136.7958,-73.8096 141.3524,-64.2447 131.8256,-68.8804 136.7958,-73.8096"/>
</g>
<!-- ui/Mover.js -->
<g id="node4" class="node">
<title>ui/Mover.js</title>
<path fill="none" stroke="#c6c5fe" d="M188.3333,-144C188.3333,-144 117.6667,-144 117.6667,-144 113.8333,-144 110,-140.1667 110,-136.3333 110,-136.3333 110,-128.6667 110,-128.6667 110,-124.8333 113.8333,-121 117.6667,-121 117.6667,-121 188.3333,-121 188.3333,-121 192.1667,-121 196,-124.8333 196,-128.6667 196,-128.6667 196,-136.3333 196,-136.3333 196,-140.1667 192.1667,-144 188.3333,-144"/>
<text text-anchor="middle" x="153" y="-128.8" font-family="Arial" font-size="14.00" fill="#c6c5fe">ui/Mover.js</text>
</g>
<!-- index.js&#45;&gt;ui/Mover.js -->
<g id="edge3" class="edge">
<title>index.js&#45;&gt;ui/Mover.js</title>
<path fill="none" stroke="#757575" d="M66.1082,-162.188C79.5233,-157.6045 95.1998,-152.2484 109.516,-147.3571"/>
<polygon fill="#757575" stroke="#757575" points="110.834,-150.6055 119.1653,-144.0602 108.5707,-143.9814 110.834,-150.6055"/>
</g>
<!-- ui/PerfMeter.js -->
<g id="node5" class="node">
<title>ui/PerfMeter.js</title>
<path fill="none" stroke="#c6c5fe" d="M345.8333,-226C345.8333,-226 253.1667,-226 253.1667,-226 249.3333,-226 245.5,-222.1667 245.5,-218.3333 245.5,-218.3333 245.5,-210.6667 245.5,-210.6667 245.5,-206.8333 249.3333,-203 253.1667,-203 253.1667,-203 345.8333,-203 345.8333,-203 349.6667,-203 353.5,-206.8333 353.5,-210.6667 353.5,-210.6667 353.5,-218.3333 353.5,-218.3333 353.5,-222.1667 349.6667,-226 345.8333,-226"/>
<text text-anchor="middle" x="299.5" y="-210.8" font-family="Arial" font-size="14.00" fill="#c6c5fe">ui/PerfMeter.js</text>
</g>
<!-- index.js&#45;&gt;ui/PerfMeter.js -->
<g id="edge4" class="edge">
<title>index.js&#45;&gt;ui/PerfMeter.js</title>
<path fill="none" stroke="#757575" d="M66.007,-184.9724C77.3013,-188.5145 90.0917,-192.1086 102,-194.5 146.0445,-203.3449 196.4411,-208.3678 235.3017,-211.1677"/>
<polygon fill="#757575" stroke="#757575" points="235.2134,-214.6698 245.4305,-211.8662 235.6951,-207.6864 235.2134,-214.6698"/>
</g>
<!-- ui/Toolbar.js -->
<g id="node6" class="node">
<title>ui/Toolbar.js</title>
<path fill="none" stroke="#c6c5fe" d="M338.3333,-267C338.3333,-267 260.6667,-267 260.6667,-267 256.8333,-267 253,-263.1667 253,-259.3333 253,-259.3333 253,-251.6667 253,-251.6667 253,-247.8333 256.8333,-244 260.6667,-244 260.6667,-244 338.3333,-244 338.3333,-244 342.1667,-244 346,-247.8333 346,-251.6667 346,-251.6667 346,-259.3333 346,-259.3333 346,-263.1667 342.1667,-267 338.3333,-267"/>
<text text-anchor="middle" x="299.5" y="-251.8" font-family="Arial" font-size="14.00" fill="#c6c5fe">ui/Toolbar.js</text>
</g>
<!-- index.js&#45;&gt;ui/Toolbar.js -->
<g id="edge5" class="edge">
<title>index.js&#45;&gt;ui/Toolbar.js</title>
<path fill="none" stroke="#757575" d="M48.3501,-185.0032C61.8193,-194.5524 82.2824,-207.7771 102,-215.5 147.6455,-233.3782 202.494,-243.6689 242.795,-249.3219"/>
<polygon fill="#757575" stroke="#757575" points="242.3347,-252.7915 252.7131,-250.661 243.2713,-245.8544 242.3347,-252.7915"/>
</g>
<!-- store/index.js&#45;&gt;ui/PerfMeter.js -->
<g id="edge10" class="edge">
<title>store/index.js&#45;&gt;ui/PerfMeter.js</title>
<path fill="none" stroke="#757575" d="M194.1983,-185.0299C211.1218,-189.7662 230.8887,-195.2982 248.6963,-200.2819"/>
<polygon fill="#757575" stroke="#757575" points="247.7841,-203.661 258.3574,-202.9857 249.6707,-196.92 247.7841,-203.661"/>
</g>
<!-- smile/reducer.js -->
<g id="node10" class="node">
<title>smile/reducer.js</title>
<path fill="none" stroke="#c6c5fe" d="M350.3333,-185C350.3333,-185 248.6667,-185 248.6667,-185 244.8333,-185 241,-181.1667 241,-177.3333 241,-177.3333 241,-169.6667 241,-169.6667 241,-165.8333 244.8333,-162 248.6667,-162 248.6667,-162 350.3333,-162 350.3333,-162 354.1667,-162 358,-165.8333 358,-169.6667 358,-169.6667 358,-177.3333 358,-177.3333 358,-181.1667 354.1667,-185 350.3333,-185"/>
<text text-anchor="middle" x="299.5" y="-169.8" font-family="Arial" font-size="14.00" fill="#c6c5fe">smile/reducer.js</text>
</g>
<!-- store/index.js&#45;&gt;smile/reducer.js -->
<g id="edge9" class="edge">
<title>store/index.js&#45;&gt;smile/reducer.js</title>
<path fill="none" stroke="#757575" d="M204.2386,-173.5C212.8115,-173.5 221.8279,-173.5 230.7547,-173.5"/>
<polygon fill="#757575" stroke="#757575" points="230.7669,-177.0001 240.7669,-173.5 230.7668,-170.0001 230.7669,-177.0001"/>
</g>
<!-- ui/controller.js -->
<g id="node12" class="node">
<title>ui/controller.js</title>
<path fill="none" stroke="#c6c5fe" d="M343.8333,-144C343.8333,-144 255.1667,-144 255.1667,-144 251.3333,-144 247.5,-140.1667 247.5,-136.3333 247.5,-136.3333 247.5,-128.6667 247.5,-128.6667 247.5,-124.8333 251.3333,-121 255.1667,-121 255.1667,-121 343.8333,-121 343.8333,-121 347.6667,-121 351.5,-124.8333 351.5,-128.6667 351.5,-128.6667 351.5,-136.3333 351.5,-136.3333 351.5,-140.1667 347.6667,-144 343.8333,-144"/>
<text text-anchor="middle" x="299.5" y="-128.8" font-family="Arial" font-size="14.00" fill="#c6c5fe">ui/controller.js</text>
</g>
<!-- store/index.js&#45;&gt;ui/controller.js -->
<g id="edge11" class="edge">
<title>store/index.js&#45;&gt;ui/controller.js</title>
<path fill="none" stroke="#757575" d="M194.1983,-161.9701C211.1218,-157.2338 230.8887,-151.7018 248.6963,-146.7181"/>
<polygon fill="#757575" stroke="#757575" points="249.6707,-150.08 258.3574,-144.0143 247.7841,-143.339 249.6707,-150.08"/>
</g>
<!-- smile/selector.js -->
<g id="node11" class="node">
<title>smile/selector.js</title>
<path fill="none" stroke="#cfffac" d="M351.3333,-23C351.3333,-23 247.6667,-23 247.6667,-23 243.8333,-23 240,-19.1667 240,-15.3333 240,-15.3333 240,-7.6667 240,-7.6667 240,-3.8333 243.8333,0 247.6667,0 247.6667,0 351.3333,0 351.3333,0 355.1667,0 359,-3.8333 359,-7.6667 359,-7.6667 359,-15.3333 359,-15.3333 359,-19.1667 355.1667,-23 351.3333,-23"/>
<text text-anchor="middle" x="299.5" y="-7.8" font-family="Arial" font-size="14.00" fill="#cfffac">smile/selector.js</text>
</g>
<!-- ui/Canvas.js&#45;&gt;smile/selector.js -->
<g id="edge12" class="edge">
<title>ui/Canvas.js&#45;&gt;smile/selector.js</title>
<path fill="none" stroke="#757575" d="M194.1983,-40.9701C211.1218,-36.2338 230.8887,-30.7018 248.6963,-25.7181"/>
<polygon fill="#757575" stroke="#757575" points="249.6707,-29.08 258.3574,-23.0143 247.7841,-22.339 249.6707,-29.08"/>
</g>
<!-- ui/Smile.js -->
<g id="node14" class="node">
<title>ui/Smile.js</title>
<path fill="none" stroke="#cfffac" d="M332.8333,-64C332.8333,-64 266.1667,-64 266.1667,-64 262.3333,-64 258.5,-60.1667 258.5,-56.3333 258.5,-56.3333 258.5,-48.6667 258.5,-48.6667 258.5,-44.8333 262.3333,-41 266.1667,-41 266.1667,-41 332.8333,-41 332.8333,-41 336.6667,-41 340.5,-44.8333 340.5,-48.6667 340.5,-48.6667 340.5,-56.3333 340.5,-56.3333 340.5,-60.1667 336.6667,-64 332.8333,-64"/>
<text text-anchor="middle" x="299.5" y="-48.8" font-family="Arial" font-size="14.00" fill="#cfffac">ui/Smile.js</text>
</g>
<!-- ui/Canvas.js&#45;&gt;ui/Smile.js -->
<g id="edge13" class="edge">
<title>ui/Canvas.js&#45;&gt;ui/Smile.js</title>
<path fill="none" stroke="#757575" d="M201.3756,-52.5C216.2734,-52.5 232.7288,-52.5 247.8385,-52.5"/>
<polygon fill="#757575" stroke="#757575" points="248.0484,-56.0001 258.0484,-52.5 248.0483,-49.0001 248.0484,-56.0001"/>
</g>
<!-- ui/Mover.js&#45;&gt;ui/controller.js -->
<g id="edge14" class="edge">
<title>ui/Mover.js&#45;&gt;ui/controller.js</title>
<path fill="none" stroke="#757575" d="M196.1625,-132.5C208.9415,-132.5 223.1992,-132.5 236.9436,-132.5"/>
<polygon fill="#757575" stroke="#757575" points="237.321,-136.0001 247.321,-132.5 237.3209,-129.0001 237.321,-136.0001"/>
</g>
<!-- ui/message.js -->
<g id="node15" class="node">
<title>ui/message.js</title>
<path fill="none" stroke="#cfffac" d="M511.8333,-124C511.8333,-124 421.1667,-124 421.1667,-124 417.3333,-124 413.5,-120.1667 413.5,-116.3333 413.5,-116.3333 413.5,-108.6667 413.5,-108.6667 413.5,-104.8333 417.3333,-101 421.1667,-101 421.1667,-101 511.8333,-101 511.8333,-101 515.6667,-101 519.5,-104.8333 519.5,-108.6667 519.5,-108.6667 519.5,-116.3333 519.5,-116.3333 519.5,-120.1667 515.6667,-124 511.8333,-124"/>
<text text-anchor="middle" x="466.5" y="-108.8" font-family="Arial" font-size="14.00" fill="#cfffac">ui/message.js</text>
</g>
<!-- ui/Mover.js&#45;&gt;ui/message.js -->
<g id="edge15" class="edge">
<title>ui/Mover.js&#45;&gt;ui/message.js</title>
<path fill="none" stroke="#757575" d="M192.0526,-120.9891C206.9205,-117.1596 224.108,-113.3908 240,-111.5 294.8165,-104.9779 357.6244,-105.9095 403.1752,-108.0814"/>
<polygon fill="#757575" stroke="#757575" points="403.0379,-111.5788 413.2032,-108.5928 403.3945,-104.5879 403.0379,-111.5788"/>
</g>
<!-- smile/message.js -->
<g id="node9" class="node">
<title>smile/message.js</title>
<path fill="none" stroke="#cfffac" d="M522.8333,-226C522.8333,-226 410.1667,-226 410.1667,-226 406.3333,-226 402.5,-222.1667 402.5,-218.3333 402.5,-218.3333 402.5,-210.6667 402.5,-210.6667 402.5,-206.8333 406.3333,-203 410.1667,-203 410.1667,-203 522.8333,-203 522.8333,-203 526.6667,-203 530.5,-206.8333 530.5,-210.6667 530.5,-210.6667 530.5,-218.3333 530.5,-218.3333 530.5,-222.1667 526.6667,-226 522.8333,-226"/>
<text text-anchor="middle" x="466.5" y="-210.8" font-family="Arial" font-size="14.00" fill="#cfffac">smile/message.js</text>
</g>
<!-- ui/PerfMeter.js&#45;&gt;smile/message.js -->
<g id="edge16" class="edge">
<title>ui/PerfMeter.js&#45;&gt;smile/message.js</title>
<path fill="none" stroke="#757575" d="M353.7201,-214.5C365.9696,-214.5 379.1817,-214.5 392.0998,-214.5"/>
<polygon fill="#757575" stroke="#757575" points="392.3729,-218.0001 402.3728,-214.5 392.3728,-211.0001 392.3729,-218.0001"/>
</g>
<!-- ui/Button.js -->
<g id="node13" class="node">
<title>ui/Button.js</title>
<path fill="none" stroke="#cfffac" d="M502.8333,-267C502.8333,-267 430.1667,-267 430.1667,-267 426.3333,-267 422.5,-263.1667 422.5,-259.3333 422.5,-259.3333 422.5,-251.6667 422.5,-251.6667 422.5,-247.8333 426.3333,-244 430.1667,-244 430.1667,-244 502.8333,-244 502.8333,-244 506.6667,-244 510.5,-247.8333 510.5,-251.6667 510.5,-251.6667 510.5,-259.3333 510.5,-259.3333 510.5,-263.1667 506.6667,-267 502.8333,-267"/>
<text text-anchor="middle" x="466.5" y="-251.8" font-family="Arial" font-size="14.00" fill="#cfffac">ui/Button.js</text>
</g>
<!-- ui/PerfMeter.js&#45;&gt;ui/Button.js -->
<g id="edge17" class="edge">
<title>ui/PerfMeter.js&#45;&gt;ui/Button.js</title>
<path fill="none" stroke="#757575" d="M346.4632,-226.0299C367.0343,-231.0803 391.2907,-237.0354 412.5949,-242.2658"/>
<polygon fill="#757575" stroke="#757575" points="411.9222,-245.7045 422.4683,-244.6898 413.5912,-238.9064 411.9222,-245.7045"/>
</g>
<!-- ui/Toolbar.js&#45;&gt;smile/message.js -->
<g id="edge18" class="edge">
<title>ui/Toolbar.js&#45;&gt;smile/message.js</title>
<path fill="none" stroke="#757575" d="M346.0188,-244.0792C365.7585,-239.233 388.9535,-233.5384 409.6933,-228.4466"/>
<polygon fill="#757575" stroke="#757575" points="410.7744,-231.7852 419.6515,-226.0017 409.1053,-224.987 410.7744,-231.7852"/>
</g>
<!-- ui/Toolbar.js&#45;&gt;ui/Button.js -->
<g id="edge19" class="edge">
<title>ui/Toolbar.js&#45;&gt;ui/Button.js</title>
<path fill="none" stroke="#757575" d="M346.0188,-255.5C366.5049,-255.5 390.7127,-255.5 412.0352,-255.5"/>
<polygon fill="#757575" stroke="#757575" points="412.242,-259.0001 422.2419,-255.5 412.2419,-252.0001 412.242,-259.0001"/>
</g>
<!-- smile/itemCreator.js -->
<g id="node7" class="node">
<title>smile/itemCreator.js</title>
<path fill="none" stroke="#c6c5fe" d="M530.3333,-185C530.3333,-185 402.6667,-185 402.6667,-185 398.8333,-185 395,-181.1667 395,-177.3333 395,-177.3333 395,-169.6667 395,-169.6667 395,-165.8333 398.8333,-162 402.6667,-162 402.6667,-162 530.3333,-162 530.3333,-162 534.1667,-162 538,-165.8333 538,-169.6667 538,-169.6667 538,-177.3333 538,-177.3333 538,-181.1667 534.1667,-185 530.3333,-185"/>
<text text-anchor="middle" x="466.5" y="-169.8" font-family="Arial" font-size="14.00" fill="#c6c5fe">smile/itemCreator.js</text>
</g>
<!-- smile/model.js -->
<g id="node8" class="node">
<title>smile/model.js</title>
<path fill="none" stroke="#cfffac" d="M674.3333,-185C674.3333,-185 581.6667,-185 581.6667,-185 577.8333,-185 574,-181.1667 574,-177.3333 574,-177.3333 574,-169.6667 574,-169.6667 574,-165.8333 577.8333,-162 581.6667,-162 581.6667,-162 674.3333,-162 674.3333,-162 678.1667,-162 682,-165.8333 682,-169.6667 682,-169.6667 682,-177.3333 682,-177.3333 682,-181.1667 678.1667,-185 674.3333,-185"/>
<text text-anchor="middle" x="628" y="-169.8" font-family="Arial" font-size="14.00" fill="#cfffac">smile/model.js</text>
</g>
<!-- smile/itemCreator.js&#45;&gt;smile/model.js -->
<g id="edge6" class="edge">
<title>smile/itemCreator.js&#45;&gt;smile/model.js</title>
<path fill="none" stroke="#757575" d="M538.2768,-173.5C546.7814,-173.5 555.4205,-173.5 563.8103,-173.5"/>
<polygon fill="#757575" stroke="#757575" points="563.8948,-177.0001 573.8947,-173.5 563.8947,-170.0001 563.8948,-177.0001"/>
</g>
<!-- smile/reducer.js&#45;&gt;smile/itemCreator.js -->
<g id="edge7" class="edge">
<title>smile/reducer.js&#45;&gt;smile/itemCreator.js</title>
<path fill="none" stroke="#757575" d="M358.378,-173.5C366.9748,-173.5 375.9541,-173.5 384.9042,-173.5"/>
<polygon fill="#757575" stroke="#757575" points="384.9749,-177.0001 394.9748,-173.5 384.9748,-170.0001 384.9749,-177.0001"/>
</g>
<!-- smile/reducer.js&#45;&gt;smile/message.js -->
<g id="edge8" class="edge">
<title>smile/reducer.js&#45;&gt;smile/message.js</title>
<path fill="none" stroke="#757575" d="M346.4632,-185.0299C366.1122,-189.8539 389.1234,-195.5034 409.7127,-200.5582"/>
<polygon fill="#757575" stroke="#757575" points="409.0541,-204.0004 419.6002,-202.9857 410.7231,-197.2023 409.0541,-204.0004"/>
</g>
<!-- ui/controller.js&#45;&gt;smile/message.js -->
<g id="edge20" class="edge">
<title>ui/controller.js&#45;&gt;smile/message.js</title>
<path fill="none" stroke="#757575" d="M343.0606,-144.0608C348.6523,-146.4184 354.1206,-149.2102 359,-152.5 379.3849,-166.2441 374.2678,-181.2855 395,-194.5 397.4456,-196.0588 400.0137,-197.4981 402.6638,-198.8269"/>
<polygon fill="#757575" stroke="#757575" points="401.3705,-202.082 411.9312,-202.9317 404.2054,-195.6817 401.3705,-202.082"/>
</g>
<!-- ui/controller.js&#45;&gt;ui/message.js -->
<g id="edge21" class="edge">
<title>ui/controller.js&#45;&gt;ui/message.js</title>
<path fill="none" stroke="#757575" d="M351.8816,-126.2267C368.1207,-124.282 386.1921,-122.1177 403.0954,-120.0934"/>
<polygon fill="#757575" stroke="#757575" points="403.9295,-123.5186 413.4424,-118.8542 403.0971,-116.5682 403.9295,-123.5186"/>
</g>
</g>
</svg>
