<?xml version="1.0" encoding="UTF-8" standalone="no"?>
<!DOCTYPE svg PUBLIC "-//W3C//DTD SVG 1.1//EN"
 "http://www.w3.org/Graphics/SVG/1.1/DTD/svg11.dtd">
<!-- Generated by graphviz version 2.40.1 (20161225.0304)
 -->
<!-- Title: G Pages: 1 -->
<svg width="747pt" height="543pt"
 viewBox="0.00 0.00 747.20 543.08" xmlns="http://www.w3.org/2000/svg" xmlns:xlink="http://www.w3.org/1999/xlink">
<g id="graph0" class="graph" transform="scale(1 1) rotate(0) translate(21.6 521.4769)">
<title>G</title>
<polygon fill="#111111" stroke="transparent" points="-21.6,21.6 -21.6,-521.4769 725.6,-521.4769 725.6,21.6 -21.6,21.6"/>
<!-- index.ts -->
<g id="node1" class="node">
<title>index.ts</title>
<path fill="none" stroke="#c6c5fe" d="M59.3333,-222.8769C59.3333,-222.8769 7.6667,-222.8769 7.6667,-222.8769 3.8333,-222.8769 0,-219.0436 0,-215.2103 0,-215.2103 0,-207.5436 0,-207.5436 0,-203.7103 3.8333,-199.8769 7.6667,-199.8769 7.6667,-199.8769 59.3333,-199.8769 59.3333,-199.8769 63.1667,-199.8769 67,-203.7103 67,-207.5436 67,-207.5436 67,-215.2103 67,-215.2103 67,-219.0436 63.1667,-222.8769 59.3333,-222.8769"/>
<text text-anchor="middle" x="33.5" y="-207.6769" font-family="Arial" font-size="14.00" fill="#c6c5fe">index.ts</text>
</g>
<!-- store/index.ts -->
<g id="node2" class="node">
<title>store/index.ts</title>
<path fill="none" stroke="#c6c5fe" d="M198.3333,-222.8769C198.3333,-222.8769 110.6667,-222.8769 110.6667,-222.8769 106.8333,-222.8769 103,-219.0436 103,-215.2103 103,-215.2103 103,-207.5436 103,-207.5436 103,-203.7103 106.8333,-199.8769 110.6667,-199.8769 110.6667,-199.8769 198.3333,-199.8769 198.3333,-199.8769 202.1667,-199.8769 206,-203.7103 206,-207.5436 206,-207.5436 206,-215.2103 206,-215.2103 206,-219.0436 202.1667,-222.8769 198.3333,-222.8769"/>
<text text-anchor="middle" x="154.5" y="-207.6769" font-family="Arial" font-size="14.00" fill="#c6c5fe">store/index.ts</text>
</g>
<!-- index.ts&#45;&gt;store/index.ts -->
<g id="edge1" class="edge">
<title>index.ts&#45;&gt;store/index.ts</title>
<path fill="none" stroke="#757575" d="M67.2052,-211.3769C75.1464,-211.3769 83.8594,-211.3769 92.6111,-211.3769"/>
<polygon fill="#757575" stroke="#757575" points="92.8589,-214.877 102.8588,-211.3769 92.8588,-207.877 92.8589,-214.877"/>
</g>
<!-- ui/Canvas.ts -->
<g id="node3" class="node">
<title>ui/Canvas.ts</title>
<path fill="none" stroke="#c6c5fe" d="M341.8333,-330.8769C341.8333,-330.8769 260.1667,-330.8769 260.1667,-330.8769 256.3333,-330.8769 252.5,-327.0436 252.5,-323.2103 252.5,-323.2103 252.5,-315.5436 252.5,-315.5436 252.5,-311.7103 256.3333,-307.8769 260.1667,-307.8769 260.1667,-307.8769 341.8333,-307.8769 341.8333,-307.8769 345.6667,-307.8769 349.5,-311.7103 349.5,-315.5436 349.5,-315.5436 349.5,-323.2103 349.5,-323.2103 349.5,-327.0436 345.6667,-330.8769 341.8333,-330.8769"/>
<text text-anchor="middle" x="301" y="-315.6769" font-family="Arial" font-size="14.00" fill="#c6c5fe">ui/Canvas.ts</text>
</g>
<!-- index.ts&#45;&gt;ui/Canvas.ts -->
<g id="edge2" class="edge">
<title>index.ts&#45;&gt;ui/Canvas.ts</title>
<path fill="none" stroke="#757575" d="M50.9522,-223.0447C64.6889,-231.886 84.5329,-243.9157 103,-252.3769 151.0038,-274.3713 208.4026,-293.0078 249.0094,-304.9982"/>
<polygon fill="#757575" stroke="#757575" points="248.1164,-308.3836 258.6966,-307.8268 250.0785,-301.6642 248.1164,-308.3836"/>
</g>
<!-- ui/Mover.ts -->
<g id="node4" class="node">
<title>ui/Mover.ts</title>
<path fill="none" stroke="#c6c5fe" d="M189.8333,-163.8769C189.8333,-163.8769 119.1667,-163.8769 119.1667,-163.8769 115.3333,-163.8769 111.5,-160.0436 111.5,-156.2103 111.5,-156.2103 111.5,-148.5436 111.5,-148.5436 111.5,-144.7103 115.3333,-140.8769 119.1667,-140.8769 119.1667,-140.8769 189.8333,-140.8769 189.8333,-140.8769 193.6667,-140.8769 197.5,-144.7103 197.5,-148.5436 197.5,-148.5436 197.5,-156.2103 197.5,-156.2103 197.5,-160.0436 193.6667,-163.8769 189.8333,-163.8769"/>
<text text-anchor="middle" x="154.5" y="-148.6769" font-family="Arial" font-size="14.00" fill="#c6c5fe">ui/Mover.ts</text>
</g>
<!-- index.ts&#45;&gt;ui/Mover.ts -->
<g id="edge3" class="edge">
<title>index.ts&#45;&gt;ui/Mover.ts</title>
<path fill="none" stroke="#757575" d="M57.1173,-199.8611C75.4041,-190.9443 100.9608,-178.4828 121.3049,-168.563"/>
<polygon fill="#757575" stroke="#757575" points="123.0744,-171.5941 130.5288,-164.0654 120.0064,-165.3023 123.0744,-171.5941"/>
</g>
<!-- ui/PerfMeter.ts -->
<g id="node5" class="node">
<title>ui/PerfMeter.ts</title>
<path fill="none" stroke="#c6c5fe" d="M347.8333,-262.8769C347.8333,-262.8769 254.1667,-262.8769 254.1667,-262.8769 250.3333,-262.8769 246.5,-259.0436 246.5,-255.2103 246.5,-255.2103 246.5,-247.5436 246.5,-247.5436 246.5,-243.7103 250.3333,-239.8769 254.1667,-239.8769 254.1667,-239.8769 347.8333,-239.8769 347.8333,-239.8769 351.6667,-239.8769 355.5,-243.7103 355.5,-247.5436 355.5,-247.5436 355.5,-255.2103 355.5,-255.2103 355.5,-259.0436 351.6667,-262.8769 347.8333,-262.8769"/>
<text text-anchor="middle" x="301" y="-247.6769" font-family="Arial" font-size="14.00" fill="#c6c5fe">ui/PerfMeter.ts</text>
</g>
<!-- index.ts&#45;&gt;ui/PerfMeter.ts -->
<g id="edge4" class="edge">
<title>index.ts&#45;&gt;ui/PerfMeter.ts</title>
<path fill="none" stroke="#757575" d="M66.7446,-222.8813C78.1207,-226.4258 91.0041,-230.0132 103,-232.3769 147.0095,-241.0487 197.3334,-245.812 236.2338,-248.4005"/>
<polygon fill="#757575" stroke="#757575" points="236.1746,-251.9037 246.3761,-249.0436 236.6176,-244.9177 236.1746,-251.9037"/>
</g>
<!-- ui/Toolbar.ts -->
<g id="node6" class="node">
<title>ui/Toolbar.ts</title>
<path fill="none" stroke="#c6c5fe" d="M340.3333,-76.8769C340.3333,-76.8769 261.6667,-76.8769 261.6667,-76.8769 257.8333,-76.8769 254,-73.0436 254,-69.2103 254,-69.2103 254,-61.5436 254,-61.5436 254,-57.7103 257.8333,-53.8769 261.6667,-53.8769 261.6667,-53.8769 340.3333,-53.8769 340.3333,-53.8769 344.1667,-53.8769 348,-57.7103 348,-61.5436 348,-61.5436 348,-69.2103 348,-69.2103 348,-73.0436 344.1667,-76.8769 340.3333,-76.8769"/>
<text text-anchor="middle" x="301" y="-61.6769" font-family="Arial" font-size="14.00" fill="#c6c5fe">ui/Toolbar.ts</text>
</g>
<!-- index.ts&#45;&gt;ui/Toolbar.ts -->
<g id="edge5" class="edge">
<title>index.ts&#45;&gt;ui/Toolbar.ts</title>
<path fill="none" stroke="#757575" d="M40.5834,-199.8481C51.7722,-182.5597 75.151,-149.9684 103,-131.3769 145.8746,-102.7547 202.2467,-85.5616 243.8723,-75.9343"/>
<polygon fill="#757575" stroke="#757575" points="244.8557,-79.301 253.8522,-73.705 243.3297,-72.4693 244.8557,-79.301"/>
</g>
<!-- store/index.ts&#45;&gt;ui/PerfMeter.ts -->
<g id="edge13" class="edge">
<title>store/index.ts&#45;&gt;ui/PerfMeter.ts</title>
<path fill="none" stroke="#757575" d="M196.8739,-222.9466C213.1215,-227.3828 231.8498,-232.4963 248.9046,-237.1529"/>
<polygon fill="#757575" stroke="#757575" points="248.1526,-240.5756 258.7214,-239.8333 249.9964,-233.8228 248.1526,-240.5756"/>
</g>
<!-- smile/reducer.ts -->
<g id="node10" class="node">
<title>smile/reducer.ts</title>
<path fill="none" stroke="#c6c5fe" d="M352.3333,-440.8769C352.3333,-440.8769 249.6667,-440.8769 249.6667,-440.8769 245.8333,-440.8769 242,-437.0436 242,-433.2103 242,-433.2103 242,-425.5436 242,-425.5436 242,-421.7103 245.8333,-417.8769 249.6667,-417.8769 249.6667,-417.8769 352.3333,-417.8769 352.3333,-417.8769 356.1667,-417.8769 360,-421.7103 360,-425.5436 360,-425.5436 360,-433.2103 360,-433.2103 360,-437.0436 356.1667,-440.8769 352.3333,-440.8769"/>
<text text-anchor="middle" x="301" y="-425.6769" font-family="Arial" font-size="14.00" fill="#c6c5fe">smile/reducer.ts</text>
</g>
<!-- store/index.ts&#45;&gt;smile/reducer.ts -->
<g id="edge11" class="edge">
<title>store/index.ts&#45;&gt;smile/reducer.ts</title>
<path fill="none" stroke="#757575" d="M162.3765,-223.0975C186.18,-258.5185 257.5686,-364.7487 287.5298,-409.3326"/>
<polygon fill="#757575" stroke="#757575" points="284.7796,-411.5152 293.2624,-417.8629 290.5896,-407.6107 284.7796,-411.5152"/>
</g>
<!-- store/types.ts -->
<g id="node12" class="node">
<title>store/types.ts</title>
<path fill="none" stroke="#c6c5fe" d="M511.3333,-222.8769C511.3333,-222.8769 423.6667,-222.8769 423.6667,-222.8769 419.8333,-222.8769 416,-219.0436 416,-215.2103 416,-215.2103 416,-207.5436 416,-207.5436 416,-203.7103 419.8333,-199.8769 423.6667,-199.8769 423.6667,-199.8769 511.3333,-199.8769 511.3333,-199.8769 515.1667,-199.8769 519,-203.7103 519,-207.5436 519,-207.5436 519,-215.2103 519,-215.2103 519,-219.0436 515.1667,-222.8769 511.3333,-222.8769"/>
<text text-anchor="middle" x="467.5" y="-207.6769" font-family="Arial" font-size="14.00" fill="#c6c5fe">store/types.ts</text>
</g>
<!-- store/index.ts&#45;&gt;store/types.ts -->
<g id="edge12" class="edge">
<title>store/index.ts&#45;&gt;store/types.ts</title>
<path fill="none" stroke="#757575" d="M206.1856,-211.3769C260.9765,-211.3769 347.4895,-211.3769 405.8108,-211.3769"/>
<polygon fill="#757575" stroke="#757575" points="405.998,-214.877 415.998,-211.3769 405.9979,-207.877 405.998,-214.877"/>
</g>
<!-- ui/controller.ts -->
<g id="node13" class="node">
<title>ui/controller.ts</title>
<path fill="none" stroke="#c6c5fe" d="M345.8333,-144.8769C345.8333,-144.8769 256.1667,-144.8769 256.1667,-144.8769 252.3333,-144.8769 248.5,-141.0436 248.5,-137.2103 248.5,-137.2103 248.5,-129.5436 248.5,-129.5436 248.5,-125.7103 252.3333,-121.8769 256.1667,-121.8769 256.1667,-121.8769 345.8333,-121.8769 345.8333,-121.8769 349.6667,-121.8769 353.5,-125.7103 353.5,-129.5436 353.5,-129.5436 353.5,-137.2103 353.5,-137.2103 353.5,-141.0436 349.6667,-144.8769 345.8333,-144.8769"/>
<text text-anchor="middle" x="301" y="-129.6769" font-family="Arial" font-size="14.00" fill="#c6c5fe">ui/controller.ts</text>
</g>
<!-- store/index.ts&#45;&gt;ui/controller.ts -->
<g id="edge14" class="edge">
<title>store/index.ts&#45;&gt;ui/controller.ts</title>
<path fill="none" stroke="#757575" d="M176.1166,-199.8678C201.0017,-186.6183 242.0635,-164.7561 270.2655,-149.7407"/>
<polygon fill="#757575" stroke="#757575" points="272.1127,-152.7224 279.2947,-144.9333 268.823,-146.5436 272.1127,-152.7224"/>
</g>
<!-- smile/selector.ts -->
<g id="node11" class="node">
<title>smile/selector.ts</title>
<path fill="none" stroke="#c6c5fe" d="M519.3333,-340.8769C519.3333,-340.8769 415.6667,-340.8769 415.6667,-340.8769 411.8333,-340.8769 408,-337.0436 408,-333.2103 408,-333.2103 408,-325.5436 408,-325.5436 408,-321.7103 411.8333,-317.8769 415.6667,-317.8769 415.6667,-317.8769 519.3333,-317.8769 519.3333,-317.8769 523.1667,-317.8769 527,-321.7103 527,-325.5436 527,-325.5436 527,-333.2103 527,-333.2103 527,-337.0436 523.1667,-340.8769 519.3333,-340.8769"/>
<text text-anchor="middle" x="467.5" y="-325.6769" font-family="Arial" font-size="14.00" fill="#c6c5fe">smile/selector.ts</text>
</g>
<!-- ui/Canvas.ts&#45;&gt;smile/selector.ts -->
<g id="edge19" class="edge">
<title>ui/Canvas.ts&#45;&gt;smile/selector.ts</title>
<path fill="none" stroke="#757575" d="M349.6063,-322.2962C364.7091,-323.2033 381.6633,-324.2216 397.9047,-325.197"/>
<polygon fill="#757575" stroke="#757575" points="397.7103,-328.6916 407.9022,-325.7975 398.13,-321.7042 397.7103,-328.6916"/>
</g>
<!-- ui/Canvas.ts&#45;&gt;store/types.ts -->
<g id="edge20" class="edge">
<title>ui/Canvas.ts&#45;&gt;store/types.ts</title>
<path fill="none" stroke="#757575" d="M318.8184,-307.819C348.1591,-288.7872 406.7929,-250.7545 441.0086,-228.5605"/>
<polygon fill="#757575" stroke="#757575" points="443.0731,-231.3933 449.558,-223.0149 439.2637,-225.5205 443.0731,-231.3933"/>
</g>
<!-- ui/Smile.ts -->
<g id="node17" class="node">
<title>ui/Smile.ts</title>
<path fill="none" stroke="#cfffac" d="M501.3333,-381.8769C501.3333,-381.8769 433.6667,-381.8769 433.6667,-381.8769 429.8333,-381.8769 426,-378.0436 426,-374.2103 426,-374.2103 426,-366.5436 426,-366.5436 426,-362.7103 429.8333,-358.8769 433.6667,-358.8769 433.6667,-358.8769 501.3333,-358.8769 501.3333,-358.8769 505.1667,-358.8769 509,-362.7103 509,-366.5436 509,-366.5436 509,-374.2103 509,-374.2103 509,-378.0436 505.1667,-381.8769 501.3333,-381.8769"/>
<text text-anchor="middle" x="467.5" y="-366.6769" font-family="Arial" font-size="14.00" fill="#cfffac">ui/Smile.ts</text>
</g>
<!-- ui/Canvas.ts&#45;&gt;ui/Smile.ts -->
<g id="edge21" class="edge">
<title>ui/Canvas.ts&#45;&gt;ui/Smile.ts</title>
<path fill="none" stroke="#757575" d="M335.1869,-330.9231C353.2178,-336.9137 375.743,-344.2417 396,-350.3769 402.465,-352.335 409.2794,-354.3295 416.0293,-356.2635"/>
<polygon fill="#757575" stroke="#757575" points="415.2485,-359.68 425.8242,-359.0424 417.1592,-352.9458 415.2485,-359.68"/>
</g>
<!-- ui/Mover.ts&#45;&gt;store/types.ts -->
<g id="edge22" class="edge">
<title>ui/Mover.ts&#45;&gt;store/types.ts</title>
<path fill="none" stroke="#757575" d="M197.6927,-160.5187C251.705,-170.6999 344.5267,-188.1967 405.9598,-199.7767"/>
<polygon fill="#757575" stroke="#757575" points="405.4405,-203.2404 415.9158,-201.6534 406.7372,-196.3615 405.4405,-203.2404"/>
</g>
<!-- ui/Mover.ts&#45;&gt;ui/controller.ts -->
<g id="edge23" class="edge">
<title>ui/Mover.ts&#45;&gt;ui/controller.ts</title>
<path fill="none" stroke="#757575" d="M197.6625,-146.7791C210.307,-145.1392 224.3992,-143.3115 238.0094,-141.5464"/>
<polygon fill="#757575" stroke="#757575" points="238.8245,-144.97 248.2913,-140.2129 237.9241,-138.0282 238.8245,-144.97"/>
</g>
<!-- ui/message.ts -->
<g id="node14" class="node">
<title>ui/message.ts</title>
<path fill="none" stroke="#cfffac" d="M685.3333,-103.8769C685.3333,-103.8769 593.6667,-103.8769 593.6667,-103.8769 589.8333,-103.8769 586,-100.0436 586,-96.2103 586,-96.2103 586,-88.5436 586,-88.5436 586,-84.7103 589.8333,-80.8769 593.6667,-80.8769 593.6667,-80.8769 685.3333,-80.8769 685.3333,-80.8769 689.1667,-80.8769 693,-84.7103 693,-88.5436 693,-88.5436 693,-96.2103 693,-96.2103 693,-100.0436 689.1667,-103.8769 685.3333,-103.8769"/>
<text text-anchor="middle" x="639.5" y="-88.6769" font-family="Arial" font-size="14.00" fill="#cfffac">ui/message.ts</text>
</g>
<!-- ui/Mover.ts&#45;&gt;ui/message.ts -->
<g id="edge24" class="edge">
<title>ui/Mover.ts&#45;&gt;ui/message.ts</title>
<path fill="none" stroke="#757575" d="M160.3901,-140.7503C172.4244,-118.261 202.1009,-68.8659 242,-44.3769 301.6575,-7.7608 326.3913,-18.7513 396,-11.3769 459.2019,-4.6813 479.0655,9.7692 539,-11.3769 573.547,-23.5658 604.9543,-53.2181 623.1441,-73.0598"/>
<polygon fill="#757575" stroke="#757575" points="620.6203,-75.4886 629.8834,-80.631 625.8489,-70.8344 620.6203,-75.4886"/>
</g>
<!-- smile/message.ts -->
<g id="node9" class="node">
<title>smile/message.ts</title>
<path fill="none" stroke="#cfffac" d="M696.3333,-201.8769C696.3333,-201.8769 582.6667,-201.8769 582.6667,-201.8769 578.8333,-201.8769 575,-198.0436 575,-194.2103 575,-194.2103 575,-186.5436 575,-186.5436 575,-182.7103 578.8333,-178.8769 582.6667,-178.8769 582.6667,-178.8769 696.3333,-178.8769 696.3333,-178.8769 700.1667,-178.8769 704,-182.7103 704,-186.5436 704,-186.5436 704,-194.2103 704,-194.2103 704,-198.0436 700.1667,-201.8769 696.3333,-201.8769"/>
<text text-anchor="middle" x="639.5" y="-186.6769" font-family="Arial" font-size="14.00" fill="#cfffac">smile/message.ts</text>
</g>
<!-- ui/PerfMeter.ts&#45;&gt;smile/message.ts -->
<g id="edge25" class="edge">
<title>ui/PerfMeter.ts&#45;&gt;smile/message.ts</title>
<path fill="none" stroke="#757575" d="M355.8064,-254.1328C404.973,-254.9503 478.486,-252.0356 539,-232.3769 556.8337,-226.5834 557.914,-218.1018 575,-210.3769 578.9059,-208.611 583.0118,-206.9415 587.1808,-205.377"/>
<polygon fill="#757575" stroke="#757575" points="588.697,-208.5534 596.959,-201.9209 586.3642,-201.9535 588.697,-208.5534"/>
</g>
<!-- ui/PerfMeter.ts&#45;&gt;smile/selector.ts -->
<g id="edge26" class="edge">
<title>ui/PerfMeter.ts&#45;&gt;smile/selector.ts</title>
<path fill="none" stroke="#757575" d="M320.2069,-263.021C339.0893,-274.1952 368.9329,-291.1335 396,-303.3769 404.5727,-307.2547 413.9107,-310.9875 422.9242,-314.3559"/>
<polygon fill="#757575" stroke="#757575" points="421.9321,-317.7195 432.526,-317.8574 424.3303,-311.1431 421.9321,-317.7195"/>
</g>
<!-- ui/PerfMeter.ts&#45;&gt;store/types.ts -->
<g id="edge27" class="edge">
<title>ui/PerfMeter.ts&#45;&gt;store/types.ts</title>
<path fill="none" stroke="#757575" d="M349.1587,-239.8073C368.0558,-235.2674 389.9056,-230.0182 409.648,-225.2753"/>
<polygon fill="#757575" stroke="#757575" points="410.5438,-228.6598 419.4495,-222.9206 408.9086,-221.8534 410.5438,-228.6598"/>
</g>
<!-- ui/PerfMeter.ts&#45;&gt;ui/message.ts -->
<g id="edge29" class="edge">
<title>ui/PerfMeter.ts&#45;&gt;ui/message.ts</title>
<path fill="none" stroke="#757575" d="M316.9174,-239.8311C335.3507,-226.7791 366.9169,-205.3968 396,-190.3769 463.376,-155.5809 546.0464,-124.6133 595.6592,-107.1994"/>
<polygon fill="#757575" stroke="#757575" points="596.8354,-110.496 605.1267,-103.9002 594.5319,-103.8859 596.8354,-110.496"/>
</g>
<!-- ui/types.ts -->
<g id="node15" class="node">
<title>ui/types.ts</title>
<path fill="none" stroke="#cfffac" d="M672.8333,-242.8769C672.8333,-242.8769 606.1667,-242.8769 606.1667,-242.8769 602.3333,-242.8769 598.5,-239.0436 598.5,-235.2103 598.5,-235.2103 598.5,-227.5436 598.5,-227.5436 598.5,-223.7103 602.3333,-219.8769 606.1667,-219.8769 606.1667,-219.8769 672.8333,-219.8769 672.8333,-219.8769 676.6667,-219.8769 680.5,-223.7103 680.5,-227.5436 680.5,-227.5436 680.5,-235.2103 680.5,-235.2103 680.5,-239.0436 676.6667,-242.8769 672.8333,-242.8769"/>
<text text-anchor="middle" x="639.5" y="-227.6769" font-family="Arial" font-size="14.00" fill="#cfffac">ui/types.ts</text>
</g>
<!-- ui/PerfMeter.ts&#45;&gt;ui/types.ts -->
<g id="edge30" class="edge">
<title>ui/PerfMeter.ts&#45;&gt;ui/types.ts</title>
<path fill="none" stroke="#757575" d="M355.7095,-261.418C404.1809,-268.697 476.7167,-275.6271 539,-265.3769 561.1322,-261.7346 584.9488,-253.8642 603.8396,-246.6124"/>
<polygon fill="#757575" stroke="#757575" points="605.2189,-249.8308 613.2342,-242.9022 602.6477,-243.3201 605.2189,-249.8308"/>
</g>
<!-- ui/Button.ts -->
<g id="node16" class="node">
<title>ui/Button.ts</title>
<path fill="none" stroke="#cfffac" d="M504.3333,-66.8769C504.3333,-66.8769 430.6667,-66.8769 430.6667,-66.8769 426.8333,-66.8769 423,-63.0436 423,-59.2103 423,-59.2103 423,-51.5436 423,-51.5436 423,-47.7103 426.8333,-43.8769 430.6667,-43.8769 430.6667,-43.8769 504.3333,-43.8769 504.3333,-43.8769 508.1667,-43.8769 512,-47.7103 512,-51.5436 512,-51.5436 512,-59.2103 512,-59.2103 512,-63.0436 508.1667,-66.8769 504.3333,-66.8769"/>
<text text-anchor="middle" x="467.5" y="-51.6769" font-family="Arial" font-size="14.00" fill="#cfffac">ui/Button.ts</text>
</g>
<!-- ui/PerfMeter.ts&#45;&gt;ui/Button.ts -->
<g id="edge28" class="edge">
<title>ui/PerfMeter.ts&#45;&gt;ui/Button.ts</title>
<path fill="none" stroke="#757575" d="M308.1123,-239.8049C322.9702,-216.044 359.0025,-160.5314 396,-119.3769 410.9899,-102.7028 429.9804,-85.8718 444.622,-73.6575"/>
<polygon fill="#757575" stroke="#757575" points="447.175,-76.0897 452.6771,-67.0355 442.7297,-70.6823 447.175,-76.0897"/>
</g>
<!-- ui/Toolbar.ts&#45;&gt;smile/message.ts -->
<g id="edge31" class="edge">
<title>ui/Toolbar.ts&#45;&gt;smile/message.ts</title>
<path fill="none" stroke="#757575" d="M322.756,-53.8128C367.2417,-31.9158 470.2063,9.6395 539,-34.3769 571.1611,-54.9546 554.6647,-80.062 575,-112.3769 588.5031,-133.8347 607.2735,-155.8815 621.0848,-171.0375"/>
<polygon fill="#757575" stroke="#757575" points="618.8197,-173.7426 628.1826,-178.701 623.9554,-168.986 618.8197,-173.7426"/>
</g>
<!-- ui/Toolbar.ts&#45;&gt;store/types.ts -->
<g id="edge32" class="edge">
<title>ui/Toolbar.ts&#45;&gt;store/types.ts</title>
<path fill="none" stroke="#757575" d="M316.2764,-77.0617C328.3327,-86.3986 345.4811,-99.9362 360,-112.3769 391.605,-139.4581 426.8467,-172.4834 448.0868,-192.7149"/>
<polygon fill="#757575" stroke="#757575" points="445.857,-195.4252 455.5049,-199.8034 450.693,-190.3643 445.857,-195.4252"/>
</g>
<!-- ui/Toolbar.ts&#45;&gt;ui/Button.ts -->
<g id="edge33" class="edge">
<title>ui/Toolbar.ts&#45;&gt;ui/Button.ts</title>
<path fill="none" stroke="#757575" d="M348.2669,-62.5381C368.4266,-61.3273 392.0724,-59.9071 412.9675,-58.6521"/>
<polygon fill="#757575" stroke="#757575" points="413.2046,-62.1443 422.9768,-58.051 412.7849,-55.1569 413.2046,-62.1443"/>
</g>
<!-- smile/itemCreator.ts -->
<g id="node7" class="node">
<title>smile/itemCreator.ts</title>
<path fill="none" stroke="#c6c5fe" d="M531.3333,-499.8769C531.3333,-499.8769 403.6667,-499.8769 403.6667,-499.8769 399.8333,-499.8769 396,-496.0436 396,-492.2103 396,-492.2103 396,-484.5436 396,-484.5436 396,-480.7103 399.8333,-476.8769 403.6667,-476.8769 403.6667,-476.8769 531.3333,-476.8769 531.3333,-476.8769 535.1667,-476.8769 539,-480.7103 539,-484.5436 539,-484.5436 539,-492.2103 539,-492.2103 539,-496.0436 535.1667,-499.8769 531.3333,-499.8769"/>
<text text-anchor="middle" x="467.5" y="-484.6769" font-family="Arial" font-size="14.00" fill="#c6c5fe">smile/itemCreator.ts</text>
</g>
<!-- smile/model.ts -->
<g id="node8" class="node">
<title>smile/model.ts</title>
<path fill="none" stroke="#cfffac" d="M686.3333,-399.8769C686.3333,-399.8769 592.6667,-399.8769 592.6667,-399.8769 588.8333,-399.8769 585,-396.0436 585,-392.2103 585,-392.2103 585,-384.5436 585,-384.5436 585,-380.7103 588.8333,-376.8769 592.6667,-376.8769 592.6667,-376.8769 686.3333,-376.8769 686.3333,-376.8769 690.1667,-376.8769 694,-380.7103 694,-384.5436 694,-384.5436 694,-392.2103 694,-392.2103 694,-396.0436 690.1667,-399.8769 686.3333,-399.8769"/>
<text text-anchor="middle" x="639.5" y="-384.6769" font-family="Arial" font-size="14.00" fill="#cfffac">smile/model.ts</text>
</g>
<!-- smile/itemCreator.ts&#45;&gt;smile/model.ts -->
<g id="edge6" class="edge">
<title>smile/itemCreator.ts&#45;&gt;smile/model.ts</title>
<path fill="none" stroke="#757575" d="M505.4837,-476.8379C516.5728,-472.8694 528.5209,-467.9897 539,-462.3769 568.5816,-446.5327 599.1537,-422.7753 618.691,-406.4783"/>
<polygon fill="#757575" stroke="#757575" points="620.9799,-409.1265 626.3535,-399.9955 616.4586,-403.7825 620.9799,-409.1265"/>
</g>
<!-- smile/reducer.ts&#45;&gt;smile/itemCreator.ts -->
<g id="edge7" class="edge">
<title>smile/reducer.ts&#45;&gt;smile/itemCreator.ts</title>
<path fill="none" stroke="#757575" d="M333.4981,-440.8928C359.657,-450.1623 396.6266,-463.2626 425.1103,-473.3559"/>
<polygon fill="#757575" stroke="#757575" points="424.205,-476.7483 434.7997,-476.7894 426.5431,-470.1503 424.205,-476.7483"/>
</g>
<!-- smile/reducer.ts&#45;&gt;smile/model.ts -->
<g id="edge9" class="edge">
<title>smile/reducer.ts&#45;&gt;smile/model.ts</title>
<path fill="none" stroke="#757575" d="M360.2198,-433.3849C408.7015,-435.4139 478.8494,-435.4771 539,-424.3769 561.6598,-420.1953 586.014,-411.5843 605.0722,-403.8325"/>
<polygon fill="#757575" stroke="#757575" points="606.6413,-406.9702 614.5187,-399.8851 603.9424,-400.5114 606.6413,-406.9702"/>
</g>
<!-- smile/reducer.ts&#45;&gt;smile/message.ts -->
<g id="edge8" class="edge">
<title>smile/reducer.ts&#45;&gt;smile/message.ts</title>
<path fill="none" stroke="#757575" d="M360.0731,-423.4736C426.3267,-416.3085 526.2452,-403.6559 539,-391.3769 598.0886,-334.4924 520.1063,-271.3195 575,-210.3769 575.7454,-209.5494 576.5243,-208.7557 577.3332,-207.9945"/>
<polygon fill="#757575" stroke="#757575" points="579.4379,-210.791 585.3281,-201.9844 575.2317,-205.1957 579.4379,-210.791"/>
</g>
<!-- smile/selector.ts&#45;&gt;smile/model.ts -->
<g id="edge10" class="edge">
<title>smile/selector.ts&#45;&gt;smile/model.ts</title>
<path fill="none" stroke="#757575" d="M508.8785,-340.951C518.7913,-343.8832 529.3098,-347.1271 539,-350.3769 559.7831,-357.347 582.6631,-365.9254 601.3353,-373.1667"/>
<polygon fill="#757575" stroke="#757575" points="600.0946,-376.4396 610.6828,-376.816 602.6404,-369.9189 600.0946,-376.4396"/>
</g>
<!-- store/types.ts&#45;&gt;smile/model.ts -->
<g id="edge16" class="edge">
<title>store/types.ts&#45;&gt;smile/model.ts</title>
<path fill="none" stroke="#757575" d="M478.7854,-222.9904C507.69,-252.7352 584.6286,-331.9104 620.5417,-368.8675"/>
<polygon fill="#757575" stroke="#757575" points="618.4684,-371.7561 627.9475,-376.4886 623.4885,-366.8778 618.4684,-371.7561"/>
</g>
<!-- store/types.ts&#45;&gt;smile/message.ts -->
<g id="edge15" class="edge">
<title>store/types.ts&#45;&gt;smile/message.ts</title>
<path fill="none" stroke="#757575" d="M519.1057,-205.0762C533.4731,-203.3221 549.3739,-201.3807 564.783,-199.4993"/>
<polygon fill="#757575" stroke="#757575" points="565.3148,-202.9605 574.8169,-198.2743 564.4664,-196.0121 565.3148,-202.9605"/>
</g>
<!-- store/types.ts&#45;&gt;ui/message.ts -->
<g id="edge17" class="edge">
<title>store/types.ts&#45;&gt;ui/message.ts</title>
<path fill="none" stroke="#757575" d="M484.3053,-199.75C514.6187,-178.7773 578.6028,-134.5093 614.2202,-109.867"/>
<polygon fill="#757575" stroke="#757575" points="616.3943,-112.6189 622.6265,-104.051 612.4115,-106.8624 616.3943,-112.6189"/>
</g>
<!-- store/types.ts&#45;&gt;ui/types.ts -->
<g id="edge18" class="edge">
<title>store/types.ts&#45;&gt;ui/types.ts</title>
<path fill="none" stroke="#757575" d="M519.1057,-217.3776C540.9742,-219.9204 566.3951,-222.8764 588.2273,-225.415"/>
<polygon fill="#757575" stroke="#757575" points="587.9644,-228.9079 598.3017,-226.5864 588.7729,-221.9548 587.9644,-228.9079"/>
</g>
<!-- ui/controller.ts&#45;&gt;smile/message.ts -->
<g id="edge34" class="edge">
<title>ui/controller.ts&#45;&gt;smile/message.ts</title>
<path fill="none" stroke="#757575" d="M353.501,-135.4032C402.0632,-138.0461 476.0293,-144.0287 539,-157.3769 559.7106,-161.7671 582.1485,-168.8952 600.5582,-175.4052"/>
<polygon fill="#757575" stroke="#757575" points="599.4661,-178.732 610.0604,-178.8358 601.8431,-172.1479 599.4661,-178.732"/>
</g>
<!-- ui/controller.ts&#45;&gt;store/types.ts -->
<g id="edge35" class="edge">
<title>ui/controller.ts&#45;&gt;store/types.ts</title>
<path fill="none" stroke="#757575" d="M330.4056,-144.8902C340.0482,-149.0432 350.6761,-154.0349 360,-159.3769 377.125,-169.1884 378.5592,-176.1384 396,-185.3769 403.5503,-189.3764 411.8502,-193.0147 420.0388,-196.2191"/>
<polygon fill="#757575" stroke="#757575" points="418.9563,-199.551 429.5487,-199.777 421.4092,-192.9948 418.9563,-199.551"/>
</g>
<!-- ui/controller.ts&#45;&gt;ui/message.ts -->
<g id="edge36" class="edge">
<title>ui/controller.ts&#45;&gt;ui/message.ts</title>
<path fill="none" stroke="#757575" d="M317.545,-121.8332C329.9757,-112.724 347.0214,-99.2736 360,-85.3769 378.9374,-65.1 371.3657,-47.1413 396,-34.3769 452.4301,-5.1373 477.6086,-17.933 539,-34.3769 568.0245,-42.1513 597.3441,-60.5556 616.7619,-74.5639"/>
<polygon fill="#757575" stroke="#757575" points="614.8332,-77.4909 624.9502,-80.6367 619.0031,-71.8685 614.8332,-77.4909"/>
</g>
<!-- ui/controller.ts&#45;&gt;ui/types.ts -->
<g id="edge37" class="edge">
<title>ui/controller.ts&#45;&gt;ui/types.ts</title>
<path fill="none" stroke="#757575" d="M345.8956,-144.9214C361.714,-148.9352 379.6301,-153.4208 396,-157.3769 459.4007,-172.6992 478.1164,-166.9759 539,-190.3769 556.0848,-196.9436 558.2204,-203.0655 575,-210.3769 579.8026,-212.4696 584.8837,-214.469 590.0015,-216.3445"/>
<polygon fill="#757575" stroke="#757575" points="589.2301,-219.783 599.825,-219.7903 591.5471,-213.1776 589.2301,-219.783"/>
</g>
</g>
</svg>
